<svg width="14" height="17" viewBox="0 0 14 17" fill="none" xmlns="http://www.w3.org/2000/svg">
<path d="M1.31129 16.2266C1.10525 16.2266 0.918524 16.1429 0.751114 15.9755C0.583705 15.8081 0.5 15.6214 0.5 15.4153V13.3871C0.5 12.2281 0.860575 11.2043 1.58172 10.3158C2.30287 9.42723 3.23006 8.86061 4.3633 8.61593C3.84819 8.97651 3.44898 9.43044 3.16568 9.97775C2.88237 10.525 2.74071 11.1142 2.74071 11.7452V15.4153C2.74071 15.557 2.76003 15.6986 2.79866 15.8403C2.8373 15.982 2.90168 16.1107 2.99183 16.2266H1.31129ZM4.15082 16.2266C3.9319 16.2266 3.74195 16.1461 3.58098 15.9852C3.42001 15.8242 3.33952 15.6343 3.33952 15.4153V11.7452C3.33952 10.8438 3.65825 10.0775 4.29569 9.44654C4.93314 8.81554 5.70258 8.50003 6.60401 8.50003H10.2548C11.1563 8.50003 11.9225 8.81554 12.5535 9.44654C13.1845 10.0775 13.5 10.8438 13.5 11.7452V12.9815C13.5 13.8829 13.1845 14.6491 12.5535 15.2801C11.9225 15.9111 11.1563 16.2266 10.2548 16.2266H4.15082ZM7.00966 6.87745C6.15973 6.87745 5.43858 6.58126 4.84621 5.98889C4.25384 5.39652 3.95765 4.67537 3.95765 3.82544C3.95765 2.97552 4.25384 2.25437 4.84621 1.662C5.43858 1.06962 6.15973 0.773438 7.00966 0.773438C7.85958 0.773438 8.58073 1.06962 9.17311 1.662C9.76548 2.25437 10.0617 2.97552 10.0617 3.82544C10.0617 4.67537 9.76548 5.39652 9.17311 5.98889C8.58073 6.58126 7.85958 6.87745 7.00966 6.87745Z" fill="white"/>
</svg>
