<svg width="14" height="15" viewBox="0 0 14 15" fill="none" xmlns="http://www.w3.org/2000/svg">
<path d="M7 11.846L3.71409 14.3548C3.55128 14.488 3.37366 14.5508 3.18124 14.5431C2.98882 14.536 2.81861 14.4806 2.67059 14.377C2.52258 14.2734 2.40802 14.1328 2.32691 13.9552C2.2452 13.7775 2.24135 13.5851 2.31536 13.3779L3.58088 9.27052L0.361577 6.98371C0.18396 6.8653 0.0729497 6.70989 0.0285455 6.51747C-0.0158587 6.32505 -0.00845789 6.14743 0.0507477 5.98462C0.109953 5.8218 0.213563 5.67734 0.361577 5.55123C0.509591 5.42572 0.687207 5.36296 0.894427 5.36296H4.8686L6.15632 1.10016C6.23033 0.89294 6.34519 0.733677 6.5009 0.622371C6.65601 0.511656 6.82238 0.456299 7 0.456299C7.17762 0.456299 7.34398 0.511656 7.4991 0.622371C7.65481 0.733677 7.76967 0.89294 7.84368 1.10016L9.1314 5.36296H13.1056C13.3128 5.36296 13.4904 5.42572 13.6384 5.55123C13.7864 5.67734 13.89 5.8218 13.9493 5.98462C14.0085 6.14743 14.0159 6.32505 13.9715 6.51747C13.9271 6.70989 13.816 6.8653 13.6384 6.98371L10.4191 9.27052L11.6846 13.3779C11.7586 13.5851 11.7551 13.7775 11.674 13.9552C11.5923 14.1328 11.4774 14.2734 11.3294 14.377C11.1814 14.4806 11.0112 14.536 10.8188 14.5431C10.6263 14.5508 10.4487 14.488 10.2859 14.3548L7 11.846Z" fill="#FFD020"/>
</svg>
